<svg width="133" height="65" viewBox="0 0 133 65" fill="none" xmlns="http://www.w3.org/2000/svg">
<g clip-path="url(#clip0_10521_69626)">
<path d="M22.47 22.46H22.57C24.38 22.46 25.85 23.93 25.85 25.74H25.92C27.6 23.32 30.16 22.37 32.55 22.37C38.88 22.37 42.21 27.46 42.21 32.44C42.21 37.15 38.68 42 32.78 42C28.88 42 26.92 40.01 26.22 38.83H26.15V48.52C24.12 48.52 22.47 46.87 22.47 44.84V22.46ZM32.31 25.57C28.64 25.57 26.08 28.74 26.08 32.17C26.08 35.94 28.88 38.8 32.41 38.8C35.71 38.8 38.71 36.18 38.71 32.24C38.71 28.91 36.12 25.57 32.31 25.57Z" fill="#363F42"/>
<path d="M49.24 16.62H45.74V41.53H49.24V16.62Z" fill="#363F42"/>
<path d="M69.07 41.53V38.64H69C67.65 40.93 65.2 42.01 62.68 42.01C56.38 42.01 52.78 37.19 52.78 32.28C52.78 27.73 55.98 22.38 62.68 22.38C65.27 22.38 67.66 23.46 69 25.51H69.07V22.89H72.57V41.54H69.07V41.53ZM62.68 25.57C58.37 25.57 56.28 29.31 56.28 32.24C56.28 35.61 58.94 38.8 62.64 38.8C66.34 38.8 69.14 35.81 69.14 32.24C69.14 28.27 66.28 25.57 62.68 25.57Z" fill="#363F42"/>
<path d="M62.67 42C61.95 42 61.26 41.93 60.61 41.81C56.55 53.89 45.13 62.2 32.25 62.2C15.74 62.2 2.31 48.77 2.31 32.26C2.31 15.75 15.75 2.32 32.26 2.32C45.04 2.32 56.47 10.59 60.57 22.58C61.23 22.46 61.93 22.38 62.67 22.38C62.76 22.38 62.86 22.39 62.95 22.39C58.7 9.16 46.23 0 32.26 0C14.47 0 0 14.47 0 32.26C0 50.05 14.47 64.52 32.26 64.52C46.33 64.52 58.82 55.31 63.03 41.98C62.91 41.98 62.8 42 62.68 42" fill="#029DB1"/>
<path d="M90.11 41.53V31.4C90.11 29.95 90.11 25.58 85.46 25.58C82.53 25.58 80.54 27.64 80.54 31.37V41.54H77.04V22.89H80.3V24.88H80.37C82.26 22.39 85.08 22.39 85.83 22.39C88.72 22.39 91.08 23.64 92.43 25.72C93.17 26.94 93.57 28.41 93.61 30.5V41.54H90.11V41.53Z" fill="#363F42"/>
<path d="M123.9 41.53C121.96 41.53 120.4 39.96 120.4 38.03V26.08H117.88V22.88H120.4V16.62C122.33 16.62 123.9 18.19 123.9 20.12V22.88H126.96V26.08H123.9V41.53Z" fill="#363F42"/>
<path d="M116.2 31.93C116.17 26.48 111.76 22.37 106.71 22.37C101.66 22.37 97.15 26.58 97.15 32.17C97.15 32.48 97.16 32.8 97.19 33.11C97.74 38.16 102.09 41.97 107.26 41.97C110.46 41.97 113.56 40.48 115.38 38.09L112.65 36.47C111.39 37.93 109.37 38.83 107.26 38.83C104.41 38.83 101.35 37.1 100.65 33.72H116.1C116.13 33.48 116.2 32.54 116.2 31.94M100.65 31.03C100.82 28.3 103.31 25.58 106.68 25.58C110.05 25.58 112.54 28.31 112.7 31.03H100.65Z" fill="#363F42"/>
<path d="M132.09 39.69C132.09 40.71 131.25 41.53 130.21 41.53C129.17 41.53 128.33 40.7 128.33 39.69C128.33 38.68 129.17 37.85 130.21 37.85C131.25 37.85 132.09 38.67 132.09 39.69Z" fill="#029DB1"/>
</g>
<defs>
<clipPath id="clip0_10521_69626">
<rect width="132.09" height="64.52" fill="white"/>
</clipPath>
</defs>
</svg>
