<svg width="28" height="44" viewBox="0 0 28 44" fill="none" xmlns="http://www.w3.org/2000/svg">
<path d="M26.7341 16.3546L26.7309 16.3706L26.7288 16.3867C26.1429 20.802 22.8802 25.5926 19.686 29.3298C18.0992 31.1864 16.5489 32.7608 15.3952 33.8711C14.8185 34.426 14.3416 34.8644 14.0094 35.1635C13.9388 35.2271 13.8748 35.2843 13.8177 35.3351C13.7814 35.3029 13.7423 35.268 13.7005 35.2305C13.4151 34.9746 13.0034 34.5987 12.501 34.1206C11.4957 33.1641 10.1288 31.8002 8.68308 30.1719C5.77923 26.9012 2.60678 22.6177 1.35905 18.4519L1.35405 18.4352L1.34791 18.4189C0.800016 16.9663 0.5 15.3915 0.5 13.7455C0.5 6.43019 6.43019 0.5 13.7455 0.5C21.0607 0.5 26.9909 6.43019 26.9909 13.7455C26.9909 14.639 26.9025 15.5114 26.7341 16.3546Z" fill="#009DB1" stroke="#025E6A"/>
<path d="M18.982 13.7452C18.982 10.8532 16.6376 8.50879 13.7456 8.50879C10.8537 8.50879 8.50928 10.8532 8.50928 13.7452C8.50928 16.6371 10.8537 18.9815 13.7456 18.9815C16.6376 18.9815 18.982 16.6371 18.982 13.7452Z" fill="white"/>
</svg>
